<svg width="16" height="16" viewBox="0 0 16 16" fill="none" xmlns="http://www.w3.org/2000/svg">
<path d="M8.00004 14.6668C8.70607 14.6668 9.32665 14.301 9.68256 13.7485C9.90511 13.4031 10.4734 13.1677 10.875 13.2546C11.5173 13.3936 12.2148 13.2135 12.7141 12.7142C13.2133 12.215 13.3934 11.5175 13.2545 10.8752C13.1676 10.4735 13.403 9.90523 13.7484 9.68268C14.3009 9.32677 14.6667 8.70619 14.6667 8.00016C14.6667 7.29414 14.3009 6.67356 13.7484 6.31764C13.403 6.0951 13.1676 5.52681 13.2545 5.12518C13.3935 4.48287 13.2133 3.78536 12.7141 3.28612C12.2149 2.78689 11.5174 2.60675 10.8751 2.74573C10.4734 2.83263 9.90511 2.59723 9.68256 2.25178C9.32664 1.69933 8.70607 1.3335 8.00004 1.3335C7.29402 1.3335 6.67344 1.69933 6.31752 2.25178C6.09497 2.59722 5.52669 2.83261 5.12506 2.74571C4.48274 2.60674 3.78524 2.78687 3.286 3.2861C2.78676 3.78534 2.60663 4.48284 2.74561 5.12515C2.83251 5.52679 2.59711 6.09509 2.25166 6.31765C1.69921 6.67356 1.33337 7.29414 1.33337 8.00016C1.33337 8.70619 1.69921 9.32677 2.25166 9.68268C2.5971 9.90523 2.83249 10.4735 2.74559 10.8751C2.60661 11.5175 2.78674 12.215 3.28598 12.7142C3.78522 13.2134 4.48271 13.3936 5.12502 13.2546C5.52666 13.1677 6.09497 13.4031 6.31752 13.7485C6.67344 14.301 7.29402 14.6668 8.00004 14.6668Z" fill="url(#paint0_linear_151_572)"/>
<path d="M8.00004 14.6668C8.70607 14.6668 9.32665 14.301 9.68256 13.7485C9.90511 13.4031 10.4734 13.1677 10.875 13.2546C11.5173 13.3936 12.2148 13.2135 12.7141 12.7142C13.2133 12.215 13.3934 11.5175 13.2545 10.8752C13.1676 10.4735 13.403 9.90523 13.7484 9.68268C14.3009 9.32677 14.6667 8.70619 14.6667 8.00016C14.6667 7.29414 14.3009 6.67356 13.7484 6.31764C13.403 6.0951 13.1676 5.52681 13.2545 5.12518C13.3935 4.48287 13.2133 3.78536 12.7141 3.28612C12.2149 2.78689 11.5174 2.60675 10.8751 2.74573C10.4734 2.83263 9.90511 2.59723 9.68256 2.25178C9.32664 1.69933 8.70607 1.3335 8.00004 1.3335C7.29402 1.3335 6.67344 1.69933 6.31752 2.25178C6.09497 2.59722 5.52669 2.83261 5.12506 2.74571C4.48274 2.60674 3.78524 2.78687 3.286 3.2861C2.78676 3.78534 2.60663 4.48284 2.74561 5.12515C2.83251 5.52679 2.59711 6.09509 2.25166 6.31765C1.69921 6.67356 1.33337 7.29414 1.33337 8.00016C1.33337 8.70619 1.69921 9.32677 2.25166 9.68268C2.5971 9.90523 2.83249 10.4735 2.74559 10.8751C2.60661 11.5175 2.78674 12.215 3.28598 12.7142C3.78522 13.2134 4.48271 13.3936 5.12502 13.2546C5.52666 13.1677 6.09497 13.4031 6.31752 13.7485C6.67344 14.301 7.29402 14.6668 8.00004 14.6668Z" fill="url(#paint1_linear_151_572)"/>
<path d="M5.33337 8.3335L7.00004 10.0002L10.6667 6.3335" stroke="white" stroke-linecap="round"/>
<defs>
<linearGradient id="paint0_linear_151_572" x1="8.00004" y1="14.6668" x2="8.00004" y2="1.3335" gradientUnits="userSpaceOnUse">
<stop stop-color="#0D0D0E"/>
<stop offset="0.50971" stop-color="#5A5B5E"/>
<stop offset="1" stop-color="#898A8C"/>
</linearGradient>
<linearGradient id="paint1_linear_151_572" x1="8.00004" y1="14.6668" x2="8.00004" y2="1.3335" gradientUnits="userSpaceOnUse">
<stop stop-color="#0D0D0E"/>
<stop offset="0.50971" stop-color="#5A5B5E"/>
<stop offset="1" stop-color="#898A8C"/>
</linearGradient>
</defs>
</svg>
