<svg width="12" height="12" viewBox="0 0 12 12" fill="none" xmlns="http://www.w3.org/2000/svg">
<rect width="10.6667" height="10.6667" transform="translate(0.666626 0.666992)" fill="white" style="mix-blend-mode:multiply"/>
<path d="M10.4699 3.7534C10.4168 3.55608 10.3128 3.37617 10.1683 3.23168C10.0238 3.08718 9.84391 2.98318 9.64659 2.93007C8.91992 2.7334 5.99992 2.7334 5.99992 2.7334C5.99992 2.7334 3.07993 2.7334 2.35326 2.93007C2.15594 2.98318 1.97603 3.08718 1.83154 3.23168C1.68704 3.37617 1.58304 3.55608 1.52993 3.7534C1.39424 4.49449 1.3284 5.24667 1.33326 6.00006C1.3284 6.75346 1.39424 7.50564 1.52993 8.24673C1.58304 8.44405 1.68704 8.62396 1.83154 8.76845C1.97603 8.91294 2.15594 9.01695 2.35326 9.07006C3.07993 9.26673 5.99992 9.26673 5.99992 9.26673C5.99992 9.26673 8.91992 9.26673 9.64659 9.07006C9.84391 9.01695 10.0238 8.91294 10.1683 8.76845C10.3128 8.62396 10.4168 8.44405 10.4699 8.24673C10.6056 7.50564 10.6715 6.75346 10.6666 6.00006C10.6715 5.24667 10.6056 4.49449 10.4699 3.7534ZM5.06659 7.40006V4.60006L7.48992 6.00006L5.06659 7.40006Z" fill="#161616"/>
</svg>
